<svg width="32" height="32" viewBox="0 0 32 32" fill="none" xmlns="http://www.w3.org/2000/svg">
<path d="M16.708 0.027C18.453 0 20.188 0.016 21.921 0C22.026 2.041 22.76 4.12 24.254 5.563C25.745 7.042 27.854 7.719 29.906 7.948V13.317C27.983 13.254 26.051 12.854 24.306 12.026C23.546 11.682 22.838 11.239 22.145 10.786C22.136 14.682 22.161 18.573 22.12 22.453C22.016 24.317 21.401 26.172 20.317 27.708C18.573 30.265 15.546 31.932 12.437 31.984C10.53 32.093 8.62503 31.573 7.00003 30.615C4.30703 29.027 2.41203 26.12 2.13603 23C2.10126 22.3392 2.09592 21.6772 2.12003 21.016C2.36003 18.479 3.61503 16.052 5.56303 14.401C7.77103 12.478 10.864 11.562 13.76 12.104C13.787 14.079 13.708 16.052 13.708 18.027C12.385 17.599 10.839 17.719 9.68303 18.522C8.83727 19.0792 8.19813 19.8989 7.86403 20.855C7.58803 21.531 7.66703 22.282 7.68303 23C8.00003 25.188 10.104 27.027 12.35 26.828C13.839 26.812 15.266 25.948 16.042 24.683C16.293 24.24 16.574 23.787 16.589 23.266C16.72 20.881 16.668 18.506 16.684 16.121C16.695 10.746 16.668 5.386 16.709 0.028L16.708 0.027Z" fill="white"/>
</svg>
